# xmcd
#
# Track frame offsets:
#	150
#	14609
#	30295
#	42841
#	59099
#	73095
#	87495
#	102595
#	117978
#	132273
#	147144
#	161915
#	176670
#	192038
#	205678
#	219897
#	232027
#	245539
#	261620
#	277428
#	291670
#	304782
#	319994
#	329488
#	343305
#
# Disc length: 4771
#
# Revision: 1
# Processed by: cddbd v1.5.1PL0 Copyright (c) Steve Scherf et al.
# Submitted via: CDex 1.51
# Normalized: r0:DSETVAR1
#
DISCID=9e12a119
DTITLE=Various Artist - Doug Aiton's Jazz Favourites-2 (CEDAR-processed 78s)
DYEAR=1900
DGENRE=Jazz
TTITLE0=01 - Lionel Hampton and His Orchestra-12th Street Rag-New York 1939
TTITLE1=02 - Benny Goodman Quartet-Moonglow-Hollywood 1936
TTITLE2=03 - Jimmy Lunceford and His Orchestra-For Dancers Only-New York 1937
TTITLE3=04 - Al Bowlly with Ray Noble and His Orchestra-The Very Thought Of You-London 1934
TTITLE4=05 - Art Tatum and his Swingsters-I've Got My Love To Keep Me Warm -Los Angeles 1937
TTITLE5=06 - The Three Keys (with novelty accompaniment)- Somebody Loses, Somebody Wins-New York 1932
TTITLE6=07 - Woody Herman and His Orchestra-Golden Wedding-New York 1940
TTITLE7=08 - Al Bowlly with Ray Noble and His New Mayfair Orchestra-Love Is The Sweetest Thing-London 1932
TTITLE8=09 - Duke Ellington and his Cotton Club Orchestra-Mood Indigo-New York 1930
TTITLE9=10 - Jimmy Lunceford and his Orchestra-My Blue Heaven-New York 1935
TTITLE10=11 - Benny Goodman Sextet-Memories Of You-New York 1939
TTITLE11=12 - The Inkspots with Ella Fitzgerald-Into Each Life Some Rain Must Fall-New York 1944
TTITLE12=13 - Al Bowlly with Ray Noble and His New Mayfair Orchestra-I'll Do My Best To Make You Happy-London 1932
TTITLE13=14 - Duke Ellington and his Famous Orchestra-Take The 'A' Train-Hollywood 1941
TTITLE14=15 - Mario 'Harp' Lorenzi and his Rhythmics-Ain't She Sweet-London 1935
TTITLE15=16 - Mills Brothers-four boys with a guitar-Paper Doll-New York 1942
TTITLE16=17 - 'Fats' Waller and his Rhythm-It's A Sin To Tell A Lie-New York 1936
TTITLE17=18 - Chick Henderson with Joe Loss and his Band-Begin the Beguine-London 1936
TTITLE18=19 - Paul Whiteman and his Orchestra-Mississippi Mud-New York 1928
TTITLE19=20 - Bing Crosby-Please-Los Angeles 1932
TTITLE20=21 - Louis Armstrong with Jimmy Dorsey and his Orchestra-Swing That Music-Los Angeles 1936
TTITLE21=22 - Joe Daniels and his Hot Shots in 'Drumnasticks'- Japanese Sandman-London 1936
TTITLE22=Al Jolson - Al Jolson-For Me and My Gal
TTITLE23=Harry James Orchestra - Harry James Orchestra-I've Heard That Song Before
TTITLE24=Benny Goodman and His Orchestra - Benny Goodman and His Orchestra-And The Angels Sing
EXTD=
EXTT0=
EXTT1=
EXTT2=
EXTT3=
EXTT4=
EXTT5=
EXTT6=
EXTT7=
EXTT8=
EXTT9=
EXTT10=
EXTT11=
EXTT12=
EXTT13=
EXTT14=
EXTT15=
EXTT16=
EXTT17=
EXTT18=
EXTT19=
EXTT20=
EXTT21=
EXTT22=
EXTT23=
EXTT24=
PLAYORDER=
